<?xml version="1.0" encoding="UTF-8"?>
<svg version="1.1" xmlns="http://www.w3.org/2000/svg" width="300" height="300">
<path d="M0 0 C3.43631812 2.89873461 6.73511916 5.91011277 10 9 C10.93457031 9.85851563 11.86914062 10.71703125 12.83203125 11.6015625 C37.81052856 35.07334166 54.47073449 70.18477255 56.17700195 104.56665039 C56.92217543 150.5447445 46.01192136 188.77308573 14 223 C13.22785156 223.82628906 12.45570313 224.65257812 11.66015625 225.50390625 C-13.12139093 251.16907423 -49.13314957 267.54324081 -84.93359375 268.3359375 C-87.76852723 268.37621971 -90.6023197 268.38249429 -93.4375 268.375 C-94.17956696 268.37478851 -94.92163391 268.37457703 -95.68618774 268.37435913 C-113.90273254 268.32277635 -130.96987975 265.67774704 -148 259 C-148.63566895 258.75411133 -149.27133789 258.50822266 -149.92626953 258.25488281 C-160.71705199 254.02143284 -170.44134158 248.53695397 -180 242 C-180.55751953 241.62037109 -181.11503906 241.24074219 -181.68945312 240.84960938 C-213.48658484 218.78865894 -235.15490758 184.15209356 -242.6081543 146.35327148 C-249.22138698 106.79042126 -241.58232614 65.7468729 -218.6796875 32.56640625 C-214.47025315 26.80960144 -209.87755142 21.45459314 -205.03125 16.2265625 C-203.355402 14.38957527 -201.83604888 12.52267569 -200.3125 10.5625 C-183.78495439 -8.780177 -156.99795425 -21.32134774 -133 -28 C-131.87392334 -28.31759277 -131.87392334 -28.31759277 -130.72509766 -28.64160156 C-86.28446222 -40.55157861 -35.44120088 -28.80835044 0 0 Z " fill="#1C1C1E" transform="translate(244,32)"/>
<path d="M0 0 C1.72694092 -0.02090698 1.72694092 -0.02090698 3.48876953 -0.04223633 C10.67568039 -0.00144375 15.46543254 0.78728123 21.625 4.5625 C23.5472339 7.84160489 23.48630502 10.79212456 22.6875 14.375 C17.63945589 25.79781776 9.00031389 30.27960057 -2.20092773 34.64453125 C-3.14524658 35.00933594 -4.08956543 35.37414062 -5.0625 35.75 C-32.72948158 46.8650044 -62.1694232 62.04467809 -84.109375 82.36328125 C-86.3125 84.375 -86.3125 84.375 -89.375 86.75 C-93.93097303 90.82129505 -97.53837413 95.58593207 -101.3125 100.375 C-102.14394531 101.39078125 -102.97539063 102.4065625 -103.83203125 103.453125 C-115.97141449 118.45143784 -124.28461934 134.88567588 -123.6484375 154.65625 C-123.22890994 158.05149627 -122.18804357 160.52417378 -120.3125 163.375 C-119.9825 164.365 -119.6525 165.355 -119.3125 166.375 C-117.09816059 167.46242694 -117.09816059 167.46242694 -114.3125 168.375 C-112.7965625 169.179375 -112.7965625 169.179375 -111.25 170 C-105.33691809 172.49377802 -98.78296338 172.34385905 -92.66796875 170.63671875 C-86.2128493 167.84119458 -82.33618765 163.34886679 -77.80859375 158.09375 C-69.28448344 148.80927304 -55.70464694 141.78014984 -43.04296875 141.00390625 C-34.11001392 140.7662914 -26.81590399 140.92319595 -19.3125 146.375 C-18.4771875 146.98085937 -17.641875 147.58671875 -16.78125 148.2109375 C-14.13526484 150.5303612 -12.48230602 152.76996292 -10.625 155.75 C-10.04363281 156.66523438 -9.46226562 157.58046875 -8.86328125 158.5234375 C-5.33396026 165.01312093 -4.25763952 171.08600915 -5.3125 178.375 C-8.32810219 187.26128021 -13.78826055 193.80513649 -20.3125 200.375 C-21.26382813 201.365 -21.26382813 201.365 -22.234375 202.375 C-25.73600507 205.9695937 -29.40414441 209.22925038 -33.3125 212.375 C-30.6725 212.375 -28.0325 212.375 -25.3125 212.375 C-28.09716171 215.40533156 -30.63705634 217.26896342 -34.34765625 219.03125 C-35.32283203 219.49660156 -36.29800781 219.96195313 -37.30273438 220.44140625 C-38.31658203 220.91449219 -39.33042969 221.38757813 -40.375 221.875 C-41.36177734 222.34808594 -42.34855469 222.82117188 -43.36523438 223.30859375 C-64.53278888 233.31709038 -92.67965304 241.92783058 -116.3125 236.375 C-116.3125 235.715 -116.3125 235.055 -116.3125 234.375 C-115.61390869 234.22466309 -114.91531738 234.07432617 -114.19555664 233.91943359 C-72.00856119 224.78675256 -72.00856119 224.78675256 -40.71875 196.71875 C-37.21504306 190.87923844 -35.61343687 186.24912077 -36.3125 179.375 C-40.81288666 176.37474222 -45.03635233 176.8028876 -50.3125 177.375 C-57.5533998 179.4583071 -63.03818014 183.424531 -67.625 189.375 C-70.79820655 193.30373191 -74.80809528 195.24732699 -79.3125 197.375 C-80.05628906 197.77074219 -80.80007812 198.16648438 -81.56640625 198.57421875 C-92.35906275 203.51146932 -107.77497105 203.24680221 -119 199.75 C-120.79470174 199.01404317 -122.56768908 198.22247959 -124.3125 197.375 C-125.26253906 196.92769531 -126.21257812 196.48039063 -127.19140625 196.01953125 C-142.7908035 188.10310244 -152.75391225 174.77283387 -158.3125 158.375 C-161.20129818 143.60862123 -160.53333311 126.79322403 -156.3125 112.375 C-155.77413242 110.37715949 -155.24690027 108.37655279 -154.71972656 106.37573242 C-154.21991051 104.49683674 -153.70046754 102.62319332 -153.1796875 100.75 C-152.37848869 97.63182085 -151.78789933 94.55726489 -151.3125 91.375 C-157.33250923 94.08990612 -162.52500991 97.4833585 -167.83081055 101.37670898 C-171.9976406 104.375 -171.9976406 104.375 -175.3125 104.375 C-176.22980809 90.15672459 -168.48653684 79.85033384 -159.7734375 69.30078125 C-127.93452081 33.37633986 -80.62692754 12.57892145 -34.3125 3.375 C-33.51924316 3.21273926 -32.72598633 3.05047852 -31.90869141 2.88330078 C-21.28674507 0.77975163 -10.82407847 0.08500585 0 0 Z " fill="#FCFCFC" transform="translate(211.3125,35.625)"/>
<path d="M0 0 C4.0297276 4.28971003 4.1593249 8.19537026 4.10546875 13.96875 C3.96442342 16.68517851 3.44672715 19.31963712 3 22 C3.33 22.66 3.66 23.32 4 24 C4.30799528 29.1181569 4.13075907 33.99235267 3 39 C3.495 39.495 3.495 39.495 4 40 C4.57099652 44.97047789 4.57523392 48.8906203 2.25 53.375 C-3.99899396 60.66549296 -3.99899396 60.66549296 -9.453125 61.2734375 C-15.19021537 61.4817676 -19.17474872 61.30729067 -23.62890625 57.47265625 C-28.00066427 52.77706431 -28.31617431 48.40245644 -28.203125 42.26953125 C-28 40 -28 40 -27 37 C-27.495 35.515 -27.495 35.515 -28 34 C-28.29645643 28.85560893 -28.0690478 24.03979676 -27 19 C-27.33 18.01 -27.66 17.02 -28 16 C-28.52166057 11.03139685 -28.5724051 7.14481021 -26.3125 2.625 C-18.32370397 -6.44336307 -9.61409721 -7.57408561 0 0 Z " fill="#414141" transform="translate(238,108)"/>
<path d="M0 0 C3.96155303 4.2171371 4.27606976 8.50665247 4.234375 14.09375 C3.91305532 16.70715009 2.83731242 18.16268758 1 20 C-0.46484375 18.73046875 -1.9296875 17.4609375 -3.39453125 16.19140625 C-7.36959835 13.24153894 -12.28206141 13.41319172 -17 14 C-20.50902129 15.39435686 -23.32034823 17.32034823 -26 20 C-28.63209197 15.43068834 -28.66092946 11.15688172 -28 6 C-25.59261178 1.18522356 -22.22607267 -2.70957093 -17.125 -4.75 C-9.77617206 -5.61456799 -5.7595214 -4.53741076 0 0 Z " fill="#FAFAFA" transform="translate(238,108)"/>
<path d="M0 0 C3.83084349 2.61193874 6.65161815 5.67823629 8.75 9.875 C8.8455931 11.53944461 8.87984645 13.20781963 8.875 14.875 C8.87886719 16.2053125 8.87886719 16.2053125 8.8828125 17.5625 C8.75 19.875 8.75 19.875 7.75 21.875 C5.17111067 20.63713312 2.85736333 19.30236516 0.4375 17.75 C-3.2553111 15.64769603 -5.97223171 15.34027896 -10.25 15.875 C-14.37026645 17.31709326 -17.32366398 18.64062861 -20.25 21.875 C-20.91 21.875 -21.57 21.875 -22.25 21.875 C-24.33210665 17.7107867 -23.96970127 12.17717694 -22.6015625 7.80078125 C-17.99494893 -1.2746412 -9.08975002 -3.14645193 0 0 Z " fill="#6D6D6D" transform="translate(233.25,122.125)"/>
</svg>
